<svg xmlns="http://www.w3.org/2000/svg" width="625" height="625" viewBox="0 0 165.12 113.42"><style>path {fill: #8b5cf6;} @media (prefers-color-scheme: dark) { path {fill: #c4b5fd;} }</style><path d="M100.72 113.42q-.53 0-1.058-.353-.353-.353-.177-.529 1.235-1.587 1.94-3.528.883-1.764 1.588-3.704-2.293-12.347-6.173-25.753-3.705-13.406-8.114-26.81-4.234-13.583-8.114-25.754-1.235.882-2.646 4.233-1.235 3.352-1.764 4.94-2.293 5.997-5.468 14.11-2.999 7.938-6.88 16.581-3.703 8.467-8.466 16.757-4.586 8.114-10.231 14.817-2.646 3.352-7.232 5.998-4.586 2.47-9.525 3.88-4.939 1.588-8.996 1.588-5.468 0-10.583-2.999-4.939-3.175-7.408-9.525-.706-2.293-1.059-4.762Q.002 89.96.002 87.49t.881-2.47q.882 0 .882 1.412 0 8.29 4.587 13.758 4.586 5.468 10.936 5.468 6.173 0 12.347-2.999 6.173-2.998 11.113-8.29 7.937-8.82 13.406-18.697t9.7-20.46 8.644-21.168q2.646-6.703 7.408-11.642T91.02 16.23h-9.701q-6.174 0-13.053.53t-12.524 2.293-8.114 5.291q-1.411 2.117-1.411 5.116 0 3.175 1.588 5.997t4.057 4.057l.352.353q0 .529-.882 1.058-.705.353-1.587.176-1.411-.881-3.528-2.822-2.117-2.116-3.88-4.41-1.588-2.293-2.117-3.88-.706-2.117-.706-4.234 0-4.233 2.999-6.879 3.175-2.646 8.114-4.057t10.583-1.94q5.82-.706 11.113-.706 5.291-.176 9.172-.176h21.343q.882-.176 0 1.235-.706 1.41-1.94 2.822-1.059 1.235-1.764 1.235-1.764-.177-5.468.705-3.528.706-4.94 1.764.53 6.703 2.47 15.7 2.117 8.995 4.94 19.05 2.821 9.877 6.173 19.931 3.528 9.878 6.879 18.521 2.822-6.703 6.35-16.404t7.408-20.638q4.057-10.936 8.29-21.167 4.41-10.407 8.644-18.52 4.41-8.115 8.643-11.996 2.117-1.94 5.115-2.998Q156.636 0 159.282 0q2.47 0 4.233 1.235 1.764 1.058 1.588 3.527l-.177 6.35q0 .177-.882.353t-.705 0q.176-2.293-1.764-3.175-1.94-1.058-3.175-1.058-3.704-.177-7.938 4.586-4.057 4.762-8.467 12.524t-8.643 17.11q-4.233 9.172-8.114 18.52-3.704 9.173-6.702 16.934t-4.94 12.17q-1.763 3.705-1.763 7.233v1.058q0 .528.176 1.058 0 .706.177 1.588.352.882.529 1.764v.353q.176.176.176.529 0 1.41-1.41 2.47-1.765 1.234-3.881 2.116-1.235.53-3.528 2.646-2.117 2.293-2.646 3.175-.353.353-.706.353z" aria-label="N"/></svg>