<?xml version="1.0" standalone="no"?>
<!DOCTYPE svg PUBLIC "-//W3C//DTD SVG 20010904//EN"
 "http://www.w3.org/TR/2001/REC-SVG-20010904/DTD/svg10.dtd">
<svg version="1.0" xmlns="http://www.w3.org/2000/svg"
 width="700.000000pt" height="700.000000pt" viewBox="0 0 700.000000 700.000000"
 preserveAspectRatio="xMidYMid meet">
<metadata>
Created by potrace 1.14, written by Peter Selinger 2001-2017
</metadata>
<g transform="translate(0.000000,700.000000) scale(0.100000,-0.100000)"
fill="#000000" stroke="none">
<path d="M6660 5894 c-276 -54 -446 -198 -664 -563 -113 -191 -326 -638 -462
-974 -25 -61 -52 -125 -59 -142 -42 -97 -235 -604 -323 -850 -255 -712 -401
-1108 -444 -1205 -12 -29 -18 -42 -51 -129 -14 -34 -27 -59 -30 -55 -12 21
-109 278 -214 564 -99 272 -203 592 -297 915 -19 66 -41 141 -49 168 -8 26
-13 47 -11 47 2 0 -1 12 -7 28 -16 41 -66 228 -133 502 -80 328 -127 585 -150
817 l-6 51 44 22 c65 31 229 69 331 76 l90 7 46 46 c55 57 117 160 101 170
-14 8 -1214 6 -1422 -3 -144 -6 -178 -9 -285 -21 -22 -3 -69 -7 -105 -10 -36
-4 -87 -10 -115 -15 -27 -5 -63 -11 -80 -14 -64 -10 -214 -45 -240 -56 -11 -4
-42 -16 -70 -25 -122 -43 -253 -128 -304 -197 -92 -125 -100 -310 -19 -473 80
-161 328 -415 405 -415 15 0 39 9 53 20 20 16 23 22 14 37 -6 10 -22 24 -37
31 -14 7 -47 36 -74 65 -101 112 -150 273 -125 418 20 119 72 191 190 269 66
44 202 102 264 114 13 2 30 7 38 10 8 3 26 8 40 10 14 3 59 11 100 20 139 27
196 33 485 52 129 9 745 12 740 3 -3 -3 -20 -9 -40 -12 -43 -7 -189 -75 -248
-115 -83 -58 -193 -169 -277 -279 -49 -65 -146 -242 -185 -338 -20 -49 -40
-99 -45 -110 -5 -11 -28 -65 -50 -120 -23 -55 -47 -113 -55 -130 -7 -16 -63
-155 -124 -307 -152 -381 -218 -531 -326 -754 -215 -441 -383 -706 -644 -1019
-190 -228 -347 -357 -561 -463 -125 -62 -139 -67 -247 -96 -303 -80 -522 -39
-695 131 -84 82 -105 111 -157 218 -63 128 -84 213 -96 390 -7 88 -19 108 -55
85 -12 -7 -15 -33 -14 -132 1 -163 11 -237 50 -360 71 -226 233 -402 450 -489
213 -85 420 -83 709 7 291 90 501 206 644 354 137 141 392 507 523 750 19 36
45 83 58 105 77 134 209 411 336 705 47 107 89 204 94 215 27 59 326 834 384
995 29 80 65 170 80 200 28 56 75 124 81 118 2 -2 23 -62 45 -133 50 -155 202
-639 235 -745 13 -41 39 -124 58 -185 75 -235 157 -494 185 -590 17 -55 44
-145 60 -200 26 -86 119 -415 191 -677 24 -87 82 -328 112 -463 19 -86 22
-102 34 -170 4 -16 13 -59 21 -94 10 -44 11 -68 4 -75 -5 -5 -10 -16 -10 -24
0 -8 -29 -75 -66 -148 -36 -74 -63 -138 -60 -143 3 -5 17 -11 31 -13 20 -4 33
5 77 56 101 117 158 163 271 223 118 61 171 105 179 147 5 26 -13 123 -27 146
-4 6 -8 59 -10 118 -3 82 1 124 15 179 15 57 113 309 171 438 5 11 47 119 95
240 449 1150 757 1831 1052 2325 315 528 531 700 746 594 77 -38 94 -61 105
-145 1 -9 50 2 57 13 4 6 8 80 10 166 5 184 -3 212 -69 255 -73 48 -162 61
-267 41z"/>
</g>
</svg>
